# xmcd
#
# Track frame offsets:
#	150
#	13191
#	27452
#	42964
#	55427
#	70369
#	85408
#	102577
#	114987
#	126732
#	137814
#	148798
#	166569
#	181998
#
# Disc length: 2580 seconds
# Revision: 2
# Processed by: cddbd v1.5.2PL0 Copyright (c) Steve Scherf et al.
# Submitted via: dBpowerAMP V12.0
#
DISCID=d10a120e
DTITLE=Kickin Grass - On The Short Rows
DYEAR=2006
DGENRE=Country
TTITLE0=Lay Down Your Weary Load
TTITLE1=On the Short Rows
TTITLE2=Cloverleaf
TTITLE3=Dear Sarah
TTITLE4=Change Your Mind
TTITLE5=Molly
TTITLE6=Fairest Rose
TTITLE7=When My Days Are Full of Sorrow
TTITLE8=Pot Liquor
TTITLE9=Hello It's Me
TTITLE10=Rock Island Line
TTITLE11=Ain't Got Nothin'
TTITLE12=Grandfather's Clock
TTITLE13=Rock Island Line
EXTD=
EXTT0=
EXTT1=
EXTT2=
EXTT3=
EXTT4=
EXTT5=
EXTT6=
EXTT7=
EXTT8=
EXTT9=
EXTT10=
EXTT11=
EXTT12=
EXTT13=
PLAYORDER=
